<?xml version="1.0" standalone="no"?>
<!DOCTYPE svg PUBLIC "-//W3C//DTD SVG 20010904//EN"
 "http://www.w3.org/TR/2001/REC-SVG-20010904/DTD/svg10.dtd">
<svg version="1.0" xmlns="http://www.w3.org/2000/svg"
 width="597.000000pt" height="597.000000pt" viewBox="0 0 597.000000 597.000000"
 preserveAspectRatio="xMidYMid meet">
<metadata>
Created by potrace 1.11, written by Peter Selinger 2001-2013
</metadata>
<g transform="translate(0.000000,597.000000) scale(0.100000,-0.100000)"
fill="#000000" stroke="none">
<path d="M2923 5894 c-22 -10 -14 -44 22 -102 59 -97 62 -176 9 -337 -17 -52
-35 -90 -46 -96 -12 -6 -64 -6 -150 2 -173 15 -306 8 -383 -21 -33 -12 -68
-29 -77 -37 -15 -14 -20 -13 -47 10 -54 45 -114 67 -232 83 -207 28 -273 52
-336 122 -33 37 -44 44 -54 35 -10 -10 -9 -25 5 -75 18 -64 96 -230 122 -259
13 -14 7 -23 -53 -86 -38 -38 -81 -93 -97 -122 -25 -46 -26 -55 -14 -67 12
-13 22 -11 71 11 44 21 73 27 132 27 98 1 114 -12 65 -53 -65 -55 -117 -74
-202 -73 -73 0 -78 -1 -78 -21 0 -12 13 -31 28 -42 34 -25 199 -83 235 -83 14
0 28 -4 31 -9 7 -11 -99 -110 -142 -133 -23 -12 -32 -24 -32 -42 0 -37 47 -49
140 -36 125 18 237 84 319 188 45 57 56 62 66 31 4 -11 33 -49 66 -84 l60 -63
-12 -134 c-10 -102 -10 -189 -1 -378 7 -135 16 -263 21 -285 5 -22 12 -64 15
-94 l7 -53 -28 8 c-15 5 -64 9 -108 9 -70 0 -86 -4 -127 -28 -104 -61 -197
-191 -243 -337 -9 -30 -18 -61 -21 -69 -2 -8 -17 7 -37 35 -17 27 -49 60 -69
73 -21 13 -38 31 -38 38 0 8 -9 31 -19 52 -18 35 -19 41 -5 81 8 23 14 59 13
79 -3 40 32 127 59 147 23 18 84 17 108 -1 25 -19 63 -19 70 0 17 43 -47 130
-118 159 -46 20 -81 20 -141 2 l-47 -14 -100 142 c-55 77 -112 156 -126 174
-29 38 -89 70 -147 80 -40 7 -45 13 -204 232 -107 149 -166 240 -175 270 -14
50 -16 101 -5 141 5 20 0 35 -21 62 -15 20 -35 39 -45 43 -27 9 -62 -19 -86
-69 -17 -35 -28 -46 -53 -51 -60 -12 -124 -104 -135 -194 -8 -67 15 -115 65
-141 28 -14 63 -52 121 -129 44 -60 81 -112 81 -115 0 -3 -11 -23 -25 -43 -58
-85 -10 -210 91 -235 l41 -11 6 -98 c7 -116 20 -148 102 -244 52 -61 54 -66
37 -78 -68 -48 -49 -147 38 -206 52 -35 58 -60 21 -89 -17 -14 -36 -41 -42
-63 -14 -45 -5 -106 18 -118 11 -7 13 -14 5 -28 -24 -45 -18 -120 13 -148 22
-21 24 -27 14 -55 -15 -42 -4 -79 26 -93 22 -10 24 -15 18 -53 -7 -57 11 -88
98 -169 71 -65 72 -66 129 -66 40 0 70 7 106 25 26 13 51 21 55 17 3 -4 21
-42 39 -86 60 -140 168 -230 292 -243 96 -10 140 28 223 190 30 59 79 144 109
189 55 84 160 207 169 198 2 -3 -9 -52 -25 -109 -25 -92 -34 -108 -72 -145
-43 -42 -66 -99 -66 -161 0 -31 -17 -66 -70 -142 -66 -93 -74 -163 -24 -202
l24 -19 -19 -45 c-44 -102 -134 -364 -156 -454 -31 -126 -41 -197 -60 -433
-27 -338 -87 -507 -270 -762 -66 -92 -81 -129 -70 -177 13 -61 66 -82 170 -70
195 24 324 83 515 238 74 60 171 147 215 193 166 175 279 303 347 396 39 54
110 149 157 212 48 63 108 150 135 193 26 42 54 77 62 77 27 0 52 38 78 118
22 65 39 94 92 156 35 41 77 85 93 97 42 31 127 147 149 204 29 76 34 128 18
177 -9 24 -11 47 -7 53 26 31 67 218 87 395 3 25 17 69 31 97 16 33 27 78 31
118 l5 66 22 -21 c13 -12 37 -62 55 -111 52 -146 132 -253 241 -326 32 -21 52
-26 102 -27 89 -1 143 28 209 113 28 36 55 70 60 75 4 6 16 2 27 -8 28 -26 89
-45 142 -46 42 0 54 6 120 59 90 72 113 108 106 163 -5 34 -2 40 18 48 34 13
48 45 40 92 -6 33 -4 42 14 54 29 21 45 86 31 130 -10 29 -9 37 9 60 37 47 22
141 -29 177 -29 20 -14 53 35 80 82 46 110 136 61 195 l-25 29 55 54 c30 30
64 69 76 87 28 45 48 126 48 195 l0 57 34 0 c41 0 94 34 120 79 28 48 27 122
-3 161 -12 17 -19 36 -15 43 4 6 46 56 93 110 59 69 96 103 123 114 49 20 71
61 71 133 0 90 -52 178 -120 207 -24 9 -38 25 -49 53 -15 38 -55 80 -76 80 -5
0 -25 -17 -43 -37 -33 -36 -35 -42 -35 -108 0 -47 -7 -84 -20 -113 -10 -23
-96 -136 -191 -251 l-171 -208 -48 -6 c-27 -3 -66 -15 -88 -26 -42 -21 -45
-25 -201 -214 -57 -70 -107 -127 -111 -127 -4 0 -24 7 -43 15 -72 30 -157 15
-214 -38 l-23 -20 -52 24 c-42 19 -67 24 -129 23 l-77 -1 4 191 c8 357 8 364
37 394 34 37 42 57 58 137 17 91 18 238 1 296 -8 25 -31 68 -53 95 -21 27 -47
65 -58 84 -29 52 -89 105 -156 138 -68 34 -113 47 -225 67 -92 16 -138 37
-149 68 -4 12 -11 85 -14 162 -10 224 -40 314 -118 352 -35 17 -69 22 -169 27
-69 3 -131 3 -137 0z m128 -66 c9 -7 23 -26 33 -41 12 -20 24 -27 39 -25 18 2
22 9 21 41 -1 34 1 37 20 31 34 -9 70 -39 84 -68 21 -43 42 -191 42 -301 1
-174 34 -211 219 -241 114 -18 219 -57 270 -100 23 -20 41 -39 41 -44 0 -18
-487 -65 -720 -69 -208 -3 -807 104 -835 149 -9 15 23 63 60 89 19 12 62 32
97 43 58 18 80 19 283 13 122 -3 231 -2 244 2 19 8 31 30 59 114 32 93 36 116
36 209 1 97 -1 109 -26 154 -16 27 -28 50 -28 52 0 10 48 3 61 -8z m-1061
-487 c129 -17 207 -42 225 -71 4 -6 2 -24 -5 -40 -9 -21 -21 -30 -48 -35 -63
-12 -128 -52 -184 -115 -54 -59 -56 -60 -87 -49 -19 7 -68 10 -116 7 l-84 -4
29 36 c16 21 50 54 75 74 25 21 45 44 45 52 0 8 -18 38 -39 67 -31 41 -71 116
-71 132 0 2 28 -6 63 -17 34 -10 123 -27 197 -37z m193 -218 c3 -5 8 -78 12
-163 l7 -155 -94 -95 c-101 -104 -164 -144 -243 -155 l-50 -8 78 81 c42 44 77
83 77 87 0 29 -23 43 -86 50 -36 4 -83 12 -103 19 l-36 13 48 21 c80 35 136
83 191 162 68 96 179 176 199 143z m157 -69 c64 -19 314 -70 450 -91 211 -33
614 -21 939 28 l134 21 24 -29 c58 -70 68 -100 67 -223 -1 -152 -23 -237 -68
-255 -37 -14 -899 -3 -1104 14 -155 14 -316 46 -362 73 -46 28 -118 96 -135
129 -9 17 -16 84 -21 194 -7 163 -6 168 12 161 10 -5 39 -14 64 -22z m-1531
-137 c6 -9 8 -29 3 -56 l-7 -43 -24 32 c-19 27 -21 36 -12 56 12 27 23 30 40
11z m4565 -48 c7 -21 4 -31 -18 -54 l-26 -28 0 50 c0 27 3 53 7 57 12 11 28 0
37 -25z m-4650 -55 c36 -36 7 -158 -49 -202 -33 -26 -48 -27 -69 -6 -42 41 1
174 67 211 29 16 33 16 51 -3z m4772 -69 c13 -18 30 -57 36 -88 10 -48 9 -58
-5 -81 -10 -14 -26 -26 -36 -26 -27 0 -78 63 -91 111 -30 110 34 165 96 84z
m-4457 -344 c116 -161 211 -300 211 -307 0 -49 -69 -134 -110 -134 -10 0 -40
30 -74 75 -50 67 -56 79 -56 123 0 76 -47 131 -131 156 -15 4 -179 209 -179
222 0 3 18 27 41 52 22 26 45 65 52 89 9 34 14 40 23 31 7 -7 107 -145 223
-307z m4299 235 c6 -24 27 -65 47 -91 l36 -47 -88 -100 c-73 -84 -95 -103
-131 -114 -24 -7 -53 -21 -64 -31 -31 -28 -58 -88 -58 -128 0 -30 -10 -48 -62
-106 -34 -38 -66 -69 -72 -69 -24 0 -76 54 -91 94 -17 43 -17 46 1 74 26 39
458 562 464 562 3 0 11 -20 18 -44z m-4437 -396 c23 -13 49 -61 49 -93 0 -32
-36 -77 -61 -77 -12 0 -34 13 -50 29 -66 66 -15 182 62 141z m2066 -19 c141
-64 176 -334 63 -479 -55 -70 -148 -92 -211 -49 -77 52 -127 178 -115 291 12
113 83 226 154 242 15 3 32 7 37 9 19 7 30 4 72 -14z m549 -22 c121 -58 163
-271 83 -427 -77 -150 -209 -168 -296 -39 -97 144 -50 396 87 465 55 27 72 28
126 1z m1753 8 c45 -55 2 -157 -68 -157 -54 0 -70 86 -25 139 28 33 73 42 93
18z m-3921 -65 c47 -47 65 -106 52 -174 -12 -62 -30 -95 -77 -140 -80 -77
-182 -98 -264 -55 -45 24 -89 84 -89 122 0 16 11 9 52 -33 62 -64 85 -65 112
-6 13 28 32 47 64 65 89 48 140 170 98 234 -27 41 7 32 52 -13z m3446 6 c-37
-72 6 -184 91 -236 26 -16 46 -37 50 -52 9 -33 34 -60 56 -60 10 0 40 20 66
45 25 25 49 43 51 40 10 -10 -22 -67 -53 -94 -64 -56 -142 -63 -225 -21 -83
42 -139 126 -147 219 -4 46 0 64 19 101 22 40 77 90 100 90 5 0 1 -14 -8 -32z
m-3733 -215 c16 -24 27 -43 22 -43 -13 1 -98 109 -101 128 -3 19 27 -14 79
-85z m3984 -2 l-58 -56 54 67 c30 37 56 62 58 56 2 -5 -23 -36 -54 -67z m-425
6 c0 -26 -10 -43 -51 -82 -83 -82 -92 -113 -48 -169 32 -41 68 -35 135 24 60
52 69 57 79 39 4 -5 -21 -36 -54 -67 -44 -41 -61 -65 -61 -83 0 -14 -11 -36
-24 -48 l-24 -22 -27 35 c-36 47 -75 156 -75 209 0 37 8 52 67 124 37 45 71
79 75 77 5 -3 8 -20 8 -37z m-3071 -69 l62 -87 -15 -62 c-19 -71 -58 -148 -92
-180 -23 -22 -24 -22 -44 -4 -11 10 -20 31 -20 47 0 23 -15 45 -60 92 -53 55
-59 65 -45 76 13 11 24 4 74 -49 67 -70 89 -75 132 -32 42 42 39 77 -13 142
-78 95 -76 91 -66 128 5 18 13 30 17 25 4 -5 36 -48 70 -96z m2814 -19 c35 -9
37 -12 37 -52 0 -23 5 -62 11 -86 14 -61 4 -62 -16 -2 -20 61 -60 95 -125 108
l-44 8 34 18 c41 20 53 20 103 6z m266 -78 c-79 -72 -97 -45 -22 31 45 45 49
47 57 28 7 -16 1 -27 -35 -59z m-3125 -29 c5 -8 4 -18 -3 -25 -8 -8 -23 1 -56
33 -47 46 -52 59 -33 78 9 9 20 2 47 -30 20 -23 40 -48 45 -56z m316 59 l25
-16 -45 -5 c-61 -8 -96 -34 -126 -93 -14 -27 -27 -47 -29 -45 -2 2 2 26 10 53
8 26 15 63 15 81 0 29 4 35 28 40 15 3 32 7 37 9 17 5 59 -6 85 -24z m2479
-57 c37 -27 61 -90 61 -167 0 -38 4 -77 10 -87 7 -14 3 -32 -18 -73 -15 -31
-30 -56 -33 -56 -3 -1 -9 47 -13 107 -7 116 -28 224 -51 259 -8 12 -15 25 -15
28 0 11 37 4 59 -11z m-3009 -69 c17 -18 19 -25 9 -25 -18 0 -59 28 -59 41 0
17 26 9 50 -16z m3517 0 c-39 -35 -69 -34 -37 0 13 14 33 25 44 25 19 -1 19
-3 -7 -25z m-3612 -26 l30 -29 -46 0 c-39 0 -50 5 -80 36 l-34 36 50 -7 c36
-4 58 -15 80 -36z m3767 -1 c-25 -25 -41 -33 -72 -33 -22 0 -40 3 -40 6 0 4
14 19 31 33 22 19 42 26 72 26 l42 0 -33 -32z m-528 -82 c-7 -30 -24 -35 -24
-8 0 18 20 45 27 38 2 -2 1 -15 -3 -30z m-3132 9 c2 -3 -10 -34 -28 -70 -18
-36 -36 -81 -40 -100 -6 -32 -26 -51 -44 -40 -25 15 57 215 88 215 10 0 21 -2
24 -5z m3496 -8 c18 -21 49 -110 56 -159 6 -39 4 -48 -8 -48 -19 0 -24 9 -42
77 -8 32 -24 75 -34 96 -11 21 -20 40 -20 42 0 10 38 4 48 -8z m-3153 -7 c3
-5 3 -21 -1 -35 -5 -20 -9 -23 -15 -13 -12 18 -11 58 0 58 6 0 12 -4 16 -10z
m2919 -106 c48 -50 78 -71 116 -84 l51 -17 -39 -6 c-22 -4 -48 -17 -62 -31
-30 -33 -39 -110 -16 -153 13 -27 14 -33 1 -43 -8 -6 -18 -30 -24 -53 -7 -32
-9 -3 -10 126 -1 197 -10 227 -65 227 -36 0 -58 -19 -75 -63 -12 -30 -19 -33
-44 -14 -15 11 -15 15 6 49 42 69 82 127 89 128 3 0 36 -30 72 -66z m-2958
-22 c57 -91 61 -110 32 -121 -20 -7 -25 -4 -43 33 -25 50 -61 71 -90 52 -35
-23 -42 -53 -49 -208 -4 -84 -11 -159 -16 -167 -7 -12 -9 -7 -10 19 0 19 -7
48 -15 63 -13 26 -13 31 0 50 9 12 15 44 15 73 0 63 -26 100 -75 110 -41 7
-47 24 -10 24 33 0 98 33 122 62 18 23 84 77 93 77 3 0 24 -30 46 -67z m2904
-134 c0 -28 -3 -39 -10 -32 -9 9 -3 74 6 74 2 0 4 -19 4 -42z m-2969 -51 c-16
-16 -19 -7 -13 38 l5 40 9 -34 c6 -22 6 -37 -1 -44z m2029 -157 c11 -11 33
-46 49 -78 15 -31 40 -77 54 -102 38 -64 36 -128 -4 -208 -37 -75 -90 -117
-213 -168 -82 -34 -88 -35 -105 -20 -15 13 -18 26 -14 56 11 77 -23 122 -49
65 -15 -33 -32 -32 -57 4 -11 15 -54 55 -95 87 -42 32 -76 64 -76 69 0 6 46
35 102 65 93 51 262 164 333 224 37 31 49 32 75 6z m827 -97 c-3 -10 -5 -4 -5
12 0 17 2 24 5 18 2 -7 2 -21 0 -30z m150 -77 c28 -88 32 -110 21 -117 -39
-26 -74 27 -92 140 -12 72 -11 81 3 84 29 8 32 3 68 -107z m-3004 88 c12 -4
12 -14 1 -71 -8 -36 -23 -85 -34 -109 -16 -38 -23 -44 -49 -44 -40 0 -40 16 0
111 17 41 35 84 40 97 9 23 17 26 42 16z m82 -41 c-19 -131 -91 -343 -116
-343 -5 0 -20 5 -31 11 -31 17 -168 129 -168 138 0 4 11 13 24 19 22 10 25 8
30 -14 7 -28 60 -64 94 -64 70 0 119 73 148 218 18 89 31 112 19 35z m1065 12
c55 -28 285 -182 348 -233 26 -20 108 -98 182 -172 145 -146 272 -309 321
-414 29 -61 30 -69 20 -116 -18 -85 -57 -146 -164 -258 -136 -142 -156 -170
-187 -260 -15 -42 -32 -78 -38 -80 -5 -1 -20 30 -32 70 -60 198 -207 543 -314
738 -120 216 -301 486 -365 544 -11 11 -21 24 -21 29 0 9 38 54 130 155 33 37
41 37 120 -3z m1750 -158 c24 -63 58 -91 108 -90 39 1 82 28 89 54 6 21 20 24
43 9 13 -8 11 -13 -10 -33 -39 -38 -160 -117 -179 -117 -27 0 -93 225 -90 307
1 17 5 7 10 -24 5 -28 18 -76 29 -106z m200 118 c0 -5 -4 -16 -8 -23 -6 -8
-12 -1 -19 22 -10 33 -10 34 8 23 11 -7 19 -16 19 -22z m-3238 -16 c-13 -34
-17 -38 -23 -23 -14 36 -9 45 38 63 1 1 -6 -18 -15 -40z m-139 -193 c9 -13 56
-54 106 -92 96 -73 98 -82 23 -83 -28 -1 -45 9 -98 61 -63 61 -82 93 -70 123
8 21 21 19 39 -9z m3514 -7 c3 -29 -14 -50 -90 -112 -54 -44 -61 -47 -100 -41
-38 6 -76 24 -50 24 16 0 154 93 188 127 35 35 49 36 52 2z m-2155 -225 c18
-30 43 -71 56 -91 13 -19 41 -66 62 -105 l39 -69 -75 -34 c-228 -104 -420
-157 -508 -141 -71 14 -67 62 16 182 42 60 51 81 58 136 4 36 14 78 21 94 13
27 19 29 114 40 55 6 116 18 135 27 19 8 38 16 42 16 4 1 22 -24 40 -55z"/>
<path d="M2531 4928 c-53 -36 -74 -71 -79 -131 -8 -104 40 -177 118 -177 76 0
130 81 77 114 -15 9 -22 6 -38 -16 -40 -54 -89 -21 -89 59 0 33 7 50 29 75 25
27 33 31 48 22 10 -6 21 -26 24 -43 8 -40 23 -56 44 -48 22 9 28 31 21 72 -15
81 -92 117 -155 73z"/>
<path d="M2766 4912 c-3 -5 -13 -66 -22 -135 -14 -103 -15 -129 -4 -142 7 -8
16 -15 21 -15 17 0 39 33 39 61 l0 29 66 0 65 0 -6 -42 c-7 -51 4 -71 36 -66
22 3 25 10 36 93 17 130 16 182 -2 189 -30 11 -44 -5 -50 -59 l-7 -53 -62 1
-61 2 0 70 c0 64 -2 70 -22 73 -11 2 -24 -1 -27 -6z"/>
<path d="M3545 4911 l-40 -6 2 -120 c3 -156 10 -202 32 -215 11 -5 55 -11 99
-12 87 -3 120 11 106 45 -4 13 -23 17 -82 19 l-77 3 -3 33 c-3 32 -3 32 42 32
59 0 76 8 76 35 0 28 -17 35 -81 35 l-49 0 0 45 0 45 64 0 c71 0 99 17 79 48
-11 18 -88 24 -168 13z"/>
<path d="M3240 4876 c-8 -11 -11 -54 -8 -146 4 -163 4 -163 127 -156 88 5 105
12 99 42 -3 16 -14 19 -81 22 l-77 3 0 109 c0 59 -3 115 -6 124 -8 20 -38 21
-54 2z"/>
<path d="M3102 4867 c-7 -8 -13 -67 -14 -138 -3 -121 -2 -124 19 -127 13 -2
25 4 31 15 15 30 25 233 11 249 -14 18 -33 18 -47 1z"/>
<path d="M2847 4074 c-61 -33 -93 -160 -66 -259 16 -56 68 -105 112 -105 126
0 180 239 77 343 -42 41 -75 47 -123 21z m103 -44 c8 -16 6 -24 -11 -41 -21
-21 -21 -21 -41 -1 -16 16 -18 23 -9 41 15 26 47 27 61 1z"/>
<path d="M3414 4046 c-75 -33 -119 -178 -83 -273 41 -110 154 -111 210 -1 73
143 -11 325 -127 274z m86 -45 c14 -28 -13 -55 -41 -41 -19 10 -26 40 -12 53
13 14 43 7 53 -12z"/>
<path d="M3470 2990 c0 -19 29 -67 43 -73 18 -7 82 57 73 72 -9 14 -116 15
-116 1z"/>
<path d="M3350 2911 c-14 -4 -26 -14 -28 -23 -4 -21 25 -78 40 -78 15 0 78 68
78 85 0 23 -39 30 -90 16z"/>
<path d="M3580 2857 c-20 -10 -24 -20 -22 -43 4 -36 24 -79 37 -79 15 0 35 49
38 91 2 43 -13 52 -53 31z"/>
<path d="M3166 2795 c-8 -21 46 -80 67 -72 20 7 50 64 42 77 -10 17 -102 12
-109 -5z"/>
<path d="M3445 2746 c-9 -13 -19 -40 -22 -60 -5 -31 -2 -37 20 -47 51 -23 67
6 51 89 -8 40 -30 48 -49 18z"/>
<path d="M2674 2896 c-8 -22 25 -116 41 -116 16 0 38 70 33 103 -4 27 -64 38
-74 13z"/>
<path d="M2542 2848 c-7 -7 -12 -24 -12 -39 0 -23 5 -27 37 -32 53 -9 71 9 41
40 -33 35 -53 44 -66 31z"/>
<path d="M2822 2771 c-18 -11 -6 -94 18 -123 23 -29 36 -17 49 43 18 81 16 89
-21 89 -18 0 -39 -4 -46 -9z"/>
<path d="M2650 2681 c-14 -4 -25 -13 -25 -21 0 -18 72 -60 103 -60 21 0 23 4
20 43 -3 40 -4 42 -38 44 -19 1 -46 -2 -60 -6z"/>
<path d="M2945 2603 c-27 -26 -14 -143 15 -143 14 0 72 108 68 127 -4 24 -64
35 -83 16z"/>
<path d="M2768 2529 c-28 -16 -21 -33 28 -69 42 -30 47 -31 62 -17 12 13 14
24 6 54 -8 34 -13 38 -44 40 -19 2 -43 -2 -52 -8z"/>
<path d="M3085 2416 c-58 -18 -56 -40 6 -71 46 -24 53 -25 67 -12 8 9 15 33
16 54 1 34 -2 38 -24 40 -14 1 -43 -4 -65 -11z"/>
<path d="M2953 2342 c-7 -4 -15 -37 -19 -73 -8 -81 4 -97 59 -74 20 8 39 20
43 26 7 12 -34 109 -51 121 -13 10 -17 10 -32 0z"/>
<path d="M3134 2245 c-7 -17 29 -71 57 -86 26 -13 45 2 54 43 9 38 2 44 -58
52 -37 4 -49 2 -53 -9z"/>
<path d="M3052 2148 c-5 -7 -12 -40 -14 -73 l-3 -60 30 -3 c17 -2 38 3 49 11
17 12 17 18 6 53 -14 45 -37 84 -49 84 -5 0 -13 -6 -19 -12z"/>
<path d="M3250 2086 c-10 -13 -10 -19 1 -33 30 -41 64 -73 75 -73 13 0 54 60
54 78 0 29 -109 52 -130 28z"/>
<path d="M3155 1978 c-27 -89 -28 -90 -11 -106 12 -12 22 -14 43 -6 33 11 38
29 23 83 -8 31 -16 41 -31 41 -11 0 -21 -6 -24 -12z"/>
<path d="M3330 1892 c0 -22 40 -62 62 -62 8 0 20 12 27 26 16 36 -1 54 -50 54
-31 0 -39 -4 -39 -18z"/>
<path d="M3194 1775 c-30 -72 -13 -106 43 -87 25 8 28 13 25 47 -7 79 -43 100
-68 40z"/>
<path d="M2505 2440 c-4 -21 -4 -44 0 -50 8 -13 46 -13 82 1 51 19 49 45 -8
75 -49 25 -66 19 -74 -26z"/>
<path d="M2323 2443 c-18 -7 -17 -102 1 -109 18 -7 93 13 102 28 4 6 -11 28
-34 50 -41 38 -47 41 -69 31z"/>
<path d="M2567 2309 c-34 -18 -38 -24 -32 -47 16 -66 47 -68 75 -6 34 79 25
89 -43 53z"/>
<path d="M2368 2254 c-38 -16 -48 -35 -48 -92 0 -65 43 -50 102 36 46 66 25
88 -54 56z"/>
</g>
</svg>
